<svg xmlns="http://www.w3.org/2000/svg" width="500" height="500"><defs><clipPath id="a"><path d="M18 194h16v-16h-8a8 8 0 0 0-8 8M18 194h16v16H18zM34 226v-16H18v8a8 8 0 0 0 8 8M18 258h16v-16h-8a8 8 0 0 0-8 8M18 258h16v16H18zM18 274h16v16H18zM18 290h16v16H18zM18 306h16v16H18zM18 322h16v16H18zM34 354v-16H18v8a8 8 0 0 0 8 8"/><circle cx="42" cy="154" r="8"/><path d="M34 178v16h8a8 8 0 0 0 0-16M34 210h16v16H34zM34 242v16h8a8 8 0 0 0 0-16M34 274h16v16H34zM34 306v16h16v-8a8 8 0 0 0-8-8M34 322h16v16H34zM50 338H34v16h8a8 8 0 0 0 8-8M50 210h16v16H50zM66 242v-16H50v8a8 8 0 0 0 8 8M50 274h16v-8a8 8 0 0 0-16 0M66 274H50v16h8a8 8 0 0 0 8-8M82 162v-16h-8a8 8 0 0 0 0 16M66 194h16v-8a8 8 0 0 0-16 0M66 194h16v16H66zM66 210h16v16H66zM66 226h16v16H66z"/><circle cx="74" cy="298" r="8"/><circle cx="74" cy="346" r="8"/><path d="M82 146v16h8a8 8 0 0 0 0-16M82 194v16h16v-8a8 8 0 0 0-8-8M82 210h16v16H82zM82 226h16v16H82zM98 242H82v8a8 8 0 0 0 16 0"/><circle cx="90" cy="330" r="8"/><path d="M98 226v16h8a8 8 0 0 0 0-16M98 274h16v-8a8 8 0 0 0-16 0M114 290v-16H98v8a8 8 0 0 0 8 8M130 162v-16h-8a8 8 0 0 0 0 16M130 194v-16h-8a8 8 0 0 0 0 16M130 226v-16h-8a8 8 0 0 0 0 16M130 258v-16h-8a8 8 0 0 0 0 16M114 274h16v16h-16zM130 322v-16h-8a8 8 0 0 0 0 16M130 354v-16h-8a8 8 0 0 0 0 16M130 146h16v16h-16zM130 162h16v16h-16zM130 178h16v16h-16zM130 194h16v16h-16zM130 210h16v16h-16zM130 242v16h8a8 8 0 0 0 0-16M130 274h16v16h-16zM130 290h16v16h-16zM130 306h16v16h-16zM130 322h16v16h-16zM130 338h16v16h-16zM162 50V34h-8a8 8 0 0 0 0 16M146 82h16v-8a8 8 0 0 0-16 0M146 82h16v16h-16zM146 98h16v16h-16zM162 114h-16v8a8 8 0 0 0 16 0M146 146v16h8a8 8 0 0 0 0-16M146 178h16v16h-16zM146 194h16v16h-16zM146 210h16v16h-16z"/><path d="M162 226h-16v8a8 8 0 0 0 16 0M146 274h16v-16h-8a8 8 0 0 0-8 8M162 274h-16v16h8a8 8 0 0 0 8-8M146 338v16h16v-8a8 8 0 0 0-8-8M146 354h16v16h-16zM162 370h-16v8a8 8 0 0 0 16 0M146 418h16v-16h-8a8 8 0 0 0-8 8M162 434v-16h-16v8a8 8 0 0 0 8 8M162 466v-16h-8a8 8 0 0 0 0 16M162 34h16v-8a8 8 0 0 0-16 0M162 34h16v16h-16zM178 50h-16v8a8 8 0 0 0 16 0M162 98h16v16h-16zM162 178h16v-8a8 8 0 0 0-16 0M162 178h16v16h-16zM162 194h16v16h-16zM162 258h16v16h-16zM162 322h16v-16h-8a8 8 0 0 0-8 8M178 322h-16v8a8 8 0 0 0 16 0M162 402h16v-8a8 8 0 0 0-16 0M162 402h16v16h-16zM162 418h16v16h-16zM162 450v16h8a8 8 0 0 0 0-16M178 82h16v-8a8 8 0 0 0-16 0M178 82h16v16h-16zM178 98h16v16h-16zM178 114h16v16h-16zM178 130h16v16h-16zM194 162v-16h-16v8a8 8 0 0 0 8 8M178 194h16v16h-16zM178 242h16v-8a8 8 0 0 0-16 0M178 242h16v16h-16zM178 258h16v16h-16zM178 306h16v16h-16zM178 370h16v-8a8 8 0 0 0-16 0M194 370h-16v8a8 8 0 0 0 16 0M178 418h16v16h-16z"/><circle cx="202" cy="58" r="8"/><path d="M194 82v16h16v-8a8 8 0 0 0-8-8M194 98h16v16h-16zM194 146v16h8a8 8 0 0 0 0-16M194 194h16v-8a8 8 0 0 0-16 0M194 194h16v16h-16zM210 226v-16h-16v8a8 8 0 0 0 8 8M194 242v16h16v-8a8 8 0 0 0-8-8M194 258h16v16h-16zM194 306h16v-8a8 8 0 0 0-16 0M210 306h-16v16h8a8 8 0 0 0 8-8M194 402h16v-8a8 8 0 0 0-16 0M194 402h16v16h-16zM210 418h-16v16h8a8 8 0 0 0 8-8"/><circle cx="202" cy="474" r="8"/><circle cx="218" cy="26" r="8"/><path d="M226 82V66h-8a8 8 0 0 0 0 16M210 98v16h16v-8a8 8 0 0 0-8-8M226 114h-16v8a8 8 0 0 0 16 0M226 178v-16h-8a8 8 0 0 0 0 16M210 210v16h8a8 8 0 0 0 0-16M210 258v16h16v-8a8 8 0 0 0-8-8M226 290v-16h-16v8a8 8 0 0 0 8 8M210 338h16v-8a8 8 0 0 0-16 0M210 338h16v16h-16zM210 354h16v16h-16zM226 386v-16h-16v8a8 8 0 0 0 8 8"/><circle cx="218" cy="458" r="8"/><path d="M226 50h16v-8a8 8 0 0 0-16 0M226 50h16v16h-16zM226 66h16v16h-16zM242 82h-16v8a8 8 0 0 0 16 0"/><circle cx="234" cy="138" r="8"/><path d="M226 162v16h8a8 8 0 0 0 0-16M242 210v-16h-8a8 8 0 0 0 0 16M226 274h16v16h-16zM226 370v16h8a8 8 0 0 0 0-16"/><circle cx="234" cy="410" r="8"/><circle cx="234" cy="442" r="8"/><path d="M242 482v-16h-8a8 8 0 0 0 0 16"/><circle cx="250" cy="26" r="8"/><circle cx="250" cy="122" r="8"/><circle cx="250" cy="154" r="8"/><path d="M242 194h16v16h-16zM242 242h16v-16h-8a8 8 0 0 0-8 8M258 258v-16h-16v8a8 8 0 0 0 8 8M242 274h16v16h-16zM242 322h16v-8a8 8 0 0 0-16 0M242 322h16v16h-16zM258 354v-16h-16v8a8 8 0 0 0 8 8"/><circle cx="250" cy="394" r="8"/><path d="M258 434v-16h-8a8 8 0 0 0 0 16M242 466h16v16h-16zM258 50h16V34h-8a8 8 0 0 0-8 8M258 50h16v16h-16zM258 66h16v16h-16zM258 82h16v16h-16zM274 114V98h-16v8a8 8 0 0 0 8 8M258 178h16v-8a8 8 0 0 0-16 0M258 178h16v16h-16zM274 194h-16v16h8a8 8 0 0 0 8-8M258 226v16h16v-8a8 8 0 0 0-8-8M258 242h16v16h-16zM258 274v16h8a8 8 0 0 0 0-16M258 322v16h16v-8a8 8 0 0 0-8-8M258 338h16v16h-16zM274 354h-16v8a8 8 0 0 0 16 0M258 418h16v-8a8 8 0 0 0-16 0M258 418h16v16h-16zM274 434h-16v8a8 8 0 0 0 16 0M258 466h16v16h-16zM274 34h16V18h-8a8 8 0 0 0-8 8M274 34h16v16h-16zM290 50h-16v16h8a8 8 0 0 0 8-8M274 98h16v16h-16zM290 114h-16v8a8 8 0 0 0 16 0M290 162v-16h-8a8 8 0 0 0 0 16M274 178h16v16h-16zM274 242v16h16v-8a8 8 0 0 0-8-8"/><path d="M290 258h-16v8a8 8 0 0 0 16 0M274 306h16v-16h-8a8 8 0 0 0-8 8M290 306h-16v8a8 8 0 0 0 16 0"/><circle cx="282" cy="394" r="8"/><path d="M274 418h16v16h-16zM274 466h16v-8a8 8 0 0 0-16 0M290 466h-16v16h8a8 8 0 0 0 8-8M290 18h16v16h-16zM290 82h16v-8a8 8 0 0 0-16 0M290 82h16v16h-16zM306 98h-16v16h8a8 8 0 0 0 8-8M290 146h16v16h-16zM290 178v16h16v-8a8 8 0 0 0-8-8M290 194h16v16h-16zM290 210h16v16h-16zM306 226h-16v8a8 8 0 0 0 16 0M290 290h16v16h-16zM290 338h16v-16h-8a8 8 0 0 0-8 8M306 338h-16v8a8 8 0 0 0 16 0M290 418h16v-8a8 8 0 0 0-16 0M290 418h16v16h-16zM306 18h16v16h-16zM322 50V34h-16v8a8 8 0 0 0 8 8M306 82h16v16h-16z"/><circle cx="314" cy="122" r="8"/><path d="M306 146h16v16h-16z"/><circle cx="314" cy="250" r="8"/><path d="M306 290h16v-16h-8a8 8 0 0 0-8 8M306 290h16v16h-16zM306 306h16v16h-16zM322 322h-16v16h8a8 8 0 0 0 8-8M322 402v-16h-8a8 8 0 0 0 0 16M306 418v16h16v-8a8 8 0 0 0-8-8M322 450v-16h-16v8a8 8 0 0 0 8 8M322 482v-16h-8a8 8 0 0 0 0 16M322 18h16v16h-16zM322 34h16v16h-16zM338 50h-16v8a8 8 0 0 0 16 0M322 82v16h8a8 8 0 0 0 0-16M322 146h16v16h-16zM322 162h16v16h-16zM338 178h-16v8a8 8 0 0 0 16 0M322 274h16v-8a8 8 0 0 0-16 0M338 274h-16v16h8a8 8 0 0 0 8-8M322 306v16h8a8 8 0 0 0 0-16M322 370h16v-16h-8a8 8 0 0 0-8 8M322 370h16v16h-16zM322 386h16v16h-16zM322 434h16v16h-16zM322 450h16v16h-16zM338 466h-16v16h8a8 8 0 0 0 8-8M338 18v16h16v-8a8 8 0 0 0-8-8M354 34h-16v16h8a8 8 0 0 0 8-8"/><circle cx="346" cy="74" r="8"/><path d="M338 130h16v-8a8 8 0 0 0-16 0M338 130h16v16h-16zM338 146h16v16h-16z"/><circle cx="346" cy="202" r="8"/><path d="M354 242v-16h-8a8 8 0 0 0 0 16M354 306v-16h-8a8 8 0 0 0 0 16M338 354h16v-16h-8a8 8 0 0 0-8 8M338 354h16v16h-16zM338 370h16v16h-16zM338 386h16v16h-16zM338 402h16v16h-16zM338 418h16v16h-16zM338 434h16v16h-16zM354 450h-16v16h8a8 8 0 0 0 8-8M354 146v16h16v-8a8 8 0 0 0-8-8M354 162h16v16h-16zM370 194v-16h-16v8a8 8 0 0 0 8 8M354 226h16v-8a8 8 0 0 0-16 0M354 226h16v16h-16zM370 274v-16h-8a8 8 0 0 0 0 16M354 290v16h16v-8a8 8 0 0 0-8-8M354 306h16v16h-16zM354 322h16v16h-16zM354 338h16v16h-16zM354 402h16v16h-16zM354 418h16v16h-16zM354 434h16v16h-16zM370 162v16h16v-8a8 8 0 0 0-8-8M370 178h16v16h-16zM386 210v-16h-16v8a8 8 0 0 0 8 8M370 226h16v16h-16zM370 258v16h16v-8a8 8 0 0 0-8-8M386 290v-16h-16v8a8 8 0 0 0 8 8M370 322h16v16h-16zM370 338h16v16h-16z"/><circle cx="378" cy="378" r="8"/><path d="M370 402h16v16h-16zM370 434v16h8a8 8 0 0 0 0-16M402 162v-16h-8a8 8 0 0 0 0 16M386 178h16v16h-16zM386 194h16v16h-16zM386 226v16h16v-8a8 8 0 0 0-8-8M402 242h-16v8a8 8 0 0 0 16 0M386 274v16h8a8 8 0 0 0 0-16M386 322h16v-8a8 8 0 0 0-16 0M386 322h16v16h-16zM386 338h16v16h-16zM386 402h16v16h-16z"/><path d="M402 418h-16v8a8 8 0 0 0 16 0M402 482v-16h-8a8 8 0 0 0 0 16M402 146h16v16h-16zM402 178h16v16h-16zM402 194h16v16h-16zM418 306v-16h-8a8 8 0 0 0 0 16M402 322v16h16v-8a8 8 0 0 0-8-8M402 338h16v16h-16zM402 354h16v16h-16zM402 370h16v16h-16zM402 386h16v16h-16zM418 402h-16v16h8a8 8 0 0 0 8-8M402 466h16v-16h-8a8 8 0 0 0-8 8M418 466h-16v16h8a8 8 0 0 0 8-8M418 146v16h8a8 8 0 0 0 0-16M418 178v16h16v-8a8 8 0 0 0-8-8M418 194h16v16h-16zM434 210h-16v8a8 8 0 0 0 16 0M434 258v-16h-8a8 8 0 0 0 0 16M418 290v16h16v-8a8 8 0 0 0-8-8M434 306h-16v8a8 8 0 0 0 16 0M418 386h16v16h-16zM418 450h16v16h-16z"/><circle cx="442" cy="170" r="8"/><path d="M434 242h16v-8a8 8 0 0 0-16 0M434 242h16v16h-16zM450 258h-16v8a8 8 0 0 0 16 0M434 354h16v-8a8 8 0 0 0-16 0M450 370v-16h-16v8a8 8 0 0 0 8 8M434 386v16h16v-8a8 8 0 0 0-8-8M450 418v-16h-16v8a8 8 0 0 0 8 8M434 450h16v-16h-8a8 8 0 0 0-8 8M434 450h16v16h-16zM450 482v-16h-16v8a8 8 0 0 0 8 8"/><circle cx="458" cy="154" r="8"/><circle cx="458" cy="202" r="8"/><path d="M466 290v-16h-8a8 8 0 0 0 0 16"/><circle cx="458" cy="314" r="8"/><path d="M450 354v16h8a8 8 0 0 0 0-16M450 402h16v16h-16zM450 434v16h8a8 8 0 0 0 0-16M450 466v16h8a8 8 0 0 0 0-16"/><circle cx="474" cy="186" r="8"/><path d="M466 274h16v-8a8 8 0 0 0-16 0M482 274h-16v16h8a8 8 0 0 0 8-8"/><circle cx="474" cy="346" r="8"/><path d="M466 402h16v-8a8 8 0 0 0-16 0M482 402h-16v16h8a8 8 0 0 0 8-8"/><path d="M18 58v32a40 40 0 0 0 40 40h32a40 40 0 0 0 40-40V58a40 40 0 0 0-40-40H58a40 40 0 0 0-40 40m40-24h32a24 24 0 0 1 24 24v32a24 24 0 0 1-24 24H58a24 24 0 0 1-24-24V58a24 24 0 0 1 24-24" clip-rule="evenodd"/><circle cx="74" cy="74" r="24"/><path d="M442 18h-32a40 40 0 0 0-40 40v32a40 40 0 0 0 40 40h32a40 40 0 0 0 40-40V58a40 40 0 0 0-40-40m24 40v32a24 24 0 0 1-24 24h-32a24 24 0 0 1-24-24V58a24 24 0 0 1 24-24h32a24 24 0 0 1 24 24" clip-rule="evenodd"/><circle cx="426" cy="74" r="24" transform="rotate(90 426 74)"/><path d="M58 482h32a40 40 0 0 0 40-40v-32a40 40 0 0 0-40-40H58a40 40 0 0 0-40 40v32a40 40 0 0 0 40 40m-24-40v-32a24 24 0 0 1 24-24h32a24 24 0 0 1 24 24v32a24 24 0 0 1-24 24H58a24 24 0 0 1-24-24" clip-rule="evenodd"/><circle cx="74" cy="426" r="24" transform="rotate(-90 74 426)"/></clipPath></defs><path fill="#fff" d="M0 0h500v500H0z" clip-path="url('#clip-path-background-color')"/><path d="M0 0h500v500H0z" clip-path="url('#a')"/></svg>